<svg width="47" height="46" viewBox="0 0 47 46" fill="none" xmlns="http://www.w3.org/2000/svg">
<path d="M6.24999 42.1668C5.19582 42.1668 4.29371 41.7918 3.54366 41.0417C2.79232 40.2904 2.41666 39.3877 2.41666 38.3335V15.3335C2.41666 14.2793 2.79232 13.3772 3.54366 12.6272C4.29371 11.8758 5.19582 11.5002 6.24999 11.5002H12.2875L15.8333 7.66683H27.3333V15.3335H33.0833V21.0835H40.75V38.3335C40.75 39.3877 40.375 40.2904 39.6249 41.0417C38.8736 41.7918 37.9708 42.1668 36.9167 42.1668H6.24999ZM21.5833 35.4585C23.9792 35.4585 26.0159 34.6203 27.6937 32.9438C29.3701 31.2661 30.2083 29.2293 30.2083 26.8335C30.2083 24.4377 29.3701 22.4009 27.6937 20.7232C26.0159 19.0467 23.9792 18.2085 21.5833 18.2085C19.1875 18.2085 17.1507 19.0467 15.473 20.7232C13.7965 22.4009 12.9583 24.4377 12.9583 26.8335C12.9583 29.2293 13.7965 31.2661 15.473 32.9438C17.1507 34.6203 19.1875 35.4585 21.5833 35.4585ZM21.5833 31.6252C20.2417 31.6252 19.1076 31.162 18.1812 30.2356C17.2549 29.3092 16.7917 28.1752 16.7917 26.8335C16.7917 25.4918 17.2549 24.3578 18.1812 23.4314C19.1076 22.505 20.2417 22.0418 21.5833 22.0418C22.925 22.0418 24.059 22.505 24.9854 23.4314C25.9118 24.3578 26.375 25.4918 26.375 26.8335C26.375 28.1752 25.9118 29.3092 24.9854 30.2356C24.059 31.162 22.925 31.6252 21.5833 31.6252ZM36.9167 15.3335V11.5002H33.0833V7.66683H36.9167V3.8335H40.75V7.66683H44.5833V11.5002H40.75V15.3335H36.9167Z" fill="#65A2C2"/>
</svg>
