<svg width="43" height="42" viewBox="0 0 43 42" fill="#65A2C2" xmlns="http://www.w3.org/2000/svg">
<path d="M11 36.75C11.8243 36.75 12.4595 36.351 12.9294 35.7656C13.4281 35.1382 13.625 34.4347 13.625 34.125C13.625 32.2875 13.7169 30.1954 14.1133 28.2109C14.5096 26.2421 15.2341 24.2603 16.5834 22.7509C17.783 21.4121 18.9931 19.8896 19.9171 17.7922C20.6004 16.2045 21.0555 14.528 21.269 12.8126C21.868 13.0679 22.521 13.1706 23.1694 13.1116C23.8179 13.0525 24.4416 12.8336 24.9847 12.4744C25.5278 12.1152 25.9733 11.627 26.2814 11.0533C26.5895 10.4797 26.7505 9.83863 26.75 9.1875C26.7504 8.8394 26.6124 8.50543 26.3665 8.25904C26.1206 8.01265 25.7869 7.87404 25.4388 7.87369C25.2665 7.87352 25.0958 7.90729 24.9365 7.97309C24.7772 8.03889 24.6324 8.13543 24.5104 8.25718C24.264 8.50308 24.1254 8.83678 24.125 9.18488C24.125 9.53297 23.9867 9.86681 23.7406 10.113C23.4945 10.3591 23.1606 10.4974 22.8125 10.4974C22.4644 10.4974 22.1306 10.3591 21.8844 10.113C21.6383 9.86681 21.5 9.53297 21.5 9.18488V6.55988C21.5007 5.51604 21.9159 4.5152 22.6542 3.77734C23.3926 3.03948 24.3937 2.625 25.4375 2.625H28.6479C29.3618 2.62507 30.0623 2.81924 30.6744 3.18675L35.339 5.985C35.9219 6.33486 36.4042 6.82965 36.7391 7.42122C37.074 8.01278 37.25 8.68097 37.25 9.36075V11.8125C37.25 12.8568 36.8352 13.8583 36.0968 14.5967C35.3583 15.3352 34.3568 15.75 33.3125 15.75H32V31.6313C33.4823 31.9338 34.8145 32.7392 35.7712 33.9112C36.7279 35.0831 37.2503 36.5496 37.25 38.0625C37.25 38.4106 37.1117 38.7444 36.8656 38.9906C36.6195 39.2367 36.2856 39.375 35.9375 39.375H29.375V38.0625C29.375 35.9126 28.3434 34.0069 26.75 32.8125V27.5625C26.75 27.2144 26.6117 26.8806 26.3656 26.6344C26.1195 26.3883 25.7856 26.25 25.4375 26.25C25.0894 26.25 24.7556 26.3883 24.5094 26.6344C24.2633 26.8806 24.125 27.2144 24.125 27.5625V31.6313C23.693 31.5436 23.2533 31.4997 22.8125 31.5H21.5C21.1519 31.5 20.8181 31.6383 20.5719 31.8844C20.3258 32.1306 20.1875 32.4644 20.1875 32.8125C20.1875 33.1606 20.3258 33.4944 20.5719 33.7406C20.8181 33.9867 21.1519 34.125 21.5 34.125H22.8125C23.8568 34.125 24.8583 34.5398 25.5968 35.2783C26.3352 36.0167 26.75 37.0182 26.75 38.0625V39.375H10.3438C8.79472 39.3755 7.28659 38.8777 6.04223 37.9551C4.79786 37.0325 3.88327 35.7341 3.4336 34.2518C2.98392 32.7694 3.023 31.1818 3.54508 29.7233C4.06715 28.2649 5.04452 27.0131 6.33277 26.1529C6.47591 26.0535 6.63742 25.9835 6.80788 25.9472C6.97833 25.9109 7.15431 25.9088 7.32555 25.9412C7.4968 25.9737 7.65987 26.0398 7.80526 26.1359C7.95065 26.232 8.07545 26.3561 8.17236 26.501C8.26928 26.6458 8.33638 26.8085 8.36974 26.9796C8.4031 27.1507 8.40206 27.3267 8.36668 27.4973C8.3313 27.668 8.26228 27.8299 8.16366 27.9736C8.06504 28.1173 7.93879 28.2399 7.79227 28.3342C6.97179 28.8813 6.34915 29.6779 6.01641 30.6063C5.68367 31.5346 5.6585 32.5453 5.94462 33.4891C6.23075 34.4328 6.81297 35.2594 7.6052 35.8467C8.39744 36.4339 9.35762 36.7506 10.3438 36.75H11Z" />
</svg>
