<svg width="46" height="46" viewBox="0 0 46 46" fill="none" xmlns="http://www.w3.org/2000/svg">
<path d="M5.75001 11.4998C4.69584 11.4998 3.83334 10.6373 3.83334 9.58317V3.83317C3.83334 2.779 4.69584 1.9165 5.75001 1.9165H11.5C12.5542 1.9165 13.4167 2.779 13.4167 3.83317C13.4167 4.88734 12.5542 5.74984 11.5 5.74984H7.66668V9.58317C7.66668 10.6373 6.80418 11.4998 5.75001 11.4998ZM32.5833 3.83317C32.5833 4.88734 33.4458 5.74984 34.5 5.74984H38.3333V9.58317C38.3333 10.6373 39.1958 11.4998 40.25 11.4998C41.3042 11.4998 42.1667 10.6373 42.1667 9.58317V3.83317C42.1667 2.779 41.3042 1.9165 40.25 1.9165H34.5C33.4458 1.9165 32.5833 2.779 32.5833 3.83317ZM5.75001 34.4998C4.69584 34.4998 3.83334 35.3623 3.83334 36.4165V42.1665C3.83334 43.2207 4.69584 44.0832 5.75001 44.0832H11.5C12.5542 44.0832 13.4167 43.2207 13.4167 42.1665C13.4167 41.1123 12.5542 40.2498 11.5 40.2498H7.66668V36.4165C7.66668 35.3623 6.80418 34.4998 5.75001 34.4998ZM32.5833 42.1665C32.5833 43.2207 33.4458 44.0832 34.5 44.0832H40.25C41.3042 44.0832 42.1667 43.2207 42.1667 42.1665V36.4165C42.1667 35.3623 41.3042 34.4998 40.25 34.4998C39.1958 34.4998 38.3333 35.3623 38.3333 36.4165V40.2498H34.5C33.4458 40.2498 32.5833 41.1123 32.5833 42.1665ZM36.4167 34.4998C36.4167 36.6082 34.6917 38.3332 32.5833 38.3332H13.4167C11.3083 38.3332 9.58334 36.6082 9.58334 34.4998V11.4998C9.58334 9.3915 11.3083 7.6665 13.4167 7.6665H32.5833C34.6917 7.6665 36.4167 9.3915 36.4167 11.4998V34.4998ZM17.25 17.2498C17.25 18.304 18.1125 19.1665 19.1667 19.1665H26.8333C27.8875 19.1665 28.75 18.304 28.75 17.2498C28.75 16.1957 27.8875 15.3332 26.8333 15.3332H19.1667C18.1125 15.3332 17.25 16.1957 17.25 17.2498ZM17.25 22.9998C17.25 24.054 18.1125 24.9165 19.1667 24.9165H26.8333C27.8875 24.9165 28.75 24.054 28.75 22.9998C28.75 21.9457 27.8875 21.0832 26.8333 21.0832H19.1667C18.1125 21.0832 17.25 21.9457 17.25 22.9998ZM17.25 28.7498C17.25 29.804 18.1125 30.6665 19.1667 30.6665H26.8333C27.8875 30.6665 28.75 29.804 28.75 28.7498C28.75 27.6957 27.8875 26.8332 26.8333 26.8332H19.1667C18.1125 26.8332 17.25 27.6957 17.25 28.7498Z" fill="#65A2C2"/>
</svg>
