<svg width="169" height="24" viewBox="0 0 169 24" fill="none" xmlns="http://www.w3.org/2000/svg">
<path d="M17.1494 2H0.649413V23H6.04941V17.39H17.1494C21.9194 17.39 25.1894 14.39 25.1894 9.71C25.1894 5.03 21.9194 2 17.1494 2ZM15.6494 12.86H6.04941V6.53H15.6494C17.2694 6.53 19.7894 6.53 19.7894 9.71C19.7894 12.86 17.2694 12.86 15.6494 12.86ZM37.8815 19.13C34.4615 19.13 31.7615 18.2 31.1915 15.38H50.2715C50.2715 7.34 44.9015 5.03 38.1815 5.03C31.0115 5.03 25.9415 7.67 25.9415 14.18C25.9415 20.66 31.1615 23.3 37.8815 23.3C44.4215 23.3 48.8015 21.17 49.9715 16.67H44.8715C43.5815 18.47 41.4215 19.13 37.8815 19.13ZM38.1515 8.93C41.3915 8.93 43.9115 9.62 44.7815 12.11H31.3715C32.1815 9.62 34.6415 8.93 38.1515 8.93ZM68.2488 9.62V5.33H59.8788V0.199998L54.7188 1.67V5.33H50.0688V9.62H54.7188V17.69C54.7188 21.59 57.6588 23.3 62.2188 23.3C64.5888 23.3 66.5388 23.15 68.2488 22.85V18.71C66.1788 19.01 65.2788 19.01 63.6588 19.01C60.5388 19.01 59.8788 18.14 59.8788 14.72V9.62H68.2488ZM86.455 2H69.955V23H75.355V17.39H86.455C91.225 17.39 94.495 14.39 94.495 9.71C94.495 5.03 91.225 2 86.455 2ZM84.955 12.86H75.355V6.53H84.955C86.575 6.53 89.095 6.53 89.095 9.71C89.095 12.86 86.575 12.86 84.955 12.86ZM106.375 5.03C102.685 5.03 99.1453 5.69 95.5453 6.86L97.3753 10.61C101.005 9.53 103.825 9.32 106.135 9.32C108.535 9.32 112.855 9.59 112.855 12.95C110.545 12.17 107.755 11.69 104.725 11.69C99.1153 11.69 94.0753 13.13 94.0753 17.72C94.0753 21.71 97.1653 23.3 102.115 23.3C106.285 23.3 109.735 22.34 112.855 20.81V23H118.015V14.09C117.955 7.4 113.755 5.03 106.375 5.03ZM112.855 17.51C110.215 18.65 106.375 19.52 103.585 19.52C100.915 19.52 99.2053 19.37 99.2053 17.51C99.2053 15.71 101.515 15.05 105.355 15.05C108.625 15.05 111.055 15.56 112.855 16.13V17.51ZM118.906 16.79C118.906 22.43 125.206 23.3 132.016 23.3C138.826 23.3 143.326 22.43 143.326 17.45C143.326 12.74 138.616 12.56 131.716 12.05C125.626 11.6 124.696 11.42 124.696 10.31C124.696 9.29 126.076 8.93 130.936 8.93C135.706 8.93 137.566 9.29 137.566 10.76H142.726C142.726 5.9 137.896 5.03 131.236 5.03C124.936 5.03 119.536 5.9 119.536 10.52C119.536 14.78 123.346 15.38 131.116 15.83C137.326 16.22 138.166 16.31 138.166 17.66C138.166 19.04 137.266 19.4 131.716 19.4C125.986 19.4 124.036 18.68 124.036 16.79H118.906ZM144.234 16.79C144.234 22.43 150.534 23.3 157.344 23.3C164.154 23.3 168.654 22.43 168.654 17.45C168.654 12.74 163.944 12.56 157.044 12.05C150.954 11.6 150.024 11.42 150.024 10.31C150.024 9.29 151.404 8.93 156.264 8.93C161.034 8.93 162.894 9.29 162.894 10.76H168.054C168.054 5.9 163.224 5.03 156.564 5.03C150.264 5.03 144.864 5.9 144.864 10.52C144.864 14.78 148.674 15.38 156.444 15.83C162.654 16.22 163.494 16.31 163.494 17.66C163.494 19.04 162.594 19.4 157.044 19.4C151.314 19.4 149.364 18.68 149.364 16.79H144.234Z" fill="#65A2C2"/>
</svg>
