<svg width="171" height="36" viewBox="0 0 171 36" fill="none" xmlns="http://www.w3.org/2000/svg">
<path d="M87.8145 6H71.3145V27H76.7145V21.39H87.8145C92.5845 21.39 95.8545 18.39 95.8545 13.71C95.8545 9.03 92.5845 6 87.8145 6ZM86.3145 16.86H76.7145V10.53H86.3145C87.9345 10.53 90.4545 10.53 90.4545 13.71C90.4545 16.86 87.9345 16.86 86.3145 16.86ZM107.735 9.03C104.045 9.03 100.505 9.69 96.9047 10.86L98.7347 14.61C102.365 13.53 105.185 13.32 107.495 13.32C109.895 13.32 114.215 13.59 114.215 16.95C111.905 16.17 109.115 15.69 106.085 15.69C100.475 15.69 95.4347 17.13 95.4347 21.72C95.4347 25.71 98.5247 27.3 103.475 27.3C107.645 27.3 111.095 26.34 114.215 24.81V27H119.375V18.09C119.315 11.4 115.115 9.03 107.735 9.03ZM114.215 21.51C111.575 22.65 107.735 23.52 104.945 23.52C102.275 23.52 100.565 23.37 100.565 21.51C100.565 19.71 102.875 19.05 106.715 19.05C109.985 19.05 112.415 19.56 114.215 20.13V21.51ZM120.265 20.79C120.265 26.43 126.565 27.3 133.375 27.3C140.185 27.3 144.685 26.43 144.685 21.45C144.685 16.74 139.975 16.56 133.075 16.05C126.985 15.6 126.055 15.42 126.055 14.31C126.055 13.29 127.435 12.93 132.295 12.93C137.065 12.93 138.925 13.29 138.925 14.76H144.085C144.085 9.9 139.255 9.03 132.595 9.03C126.295 9.03 120.895 9.9 120.895 14.52C120.895 18.78 124.705 19.38 132.475 19.83C138.685 20.22 139.525 20.31 139.525 21.66C139.525 23.04 138.625 23.4 133.075 23.4C127.345 23.4 125.395 22.68 125.395 20.79H120.265ZM145.594 20.79C145.594 26.43 151.894 27.3 158.704 27.3C165.514 27.3 170.014 26.43 170.014 21.45C170.014 16.74 165.304 16.56 158.404 16.05C152.314 15.6 151.384 15.42 151.384 14.31C151.384 13.29 152.764 12.93 157.624 12.93C162.394 12.93 164.254 13.29 164.254 14.76H169.414C169.414 9.9 164.584 9.03 157.924 9.03C151.624 9.03 146.224 9.9 146.224 14.52C146.224 18.78 150.034 19.38 157.804 19.83C164.014 20.22 164.854 20.31 164.854 21.66C164.854 23.04 163.954 23.4 158.404 23.4C152.674 23.4 150.724 22.68 150.724 20.79H145.594Z" fill="#65A2C2"/>
<path d="M17.79 6H1.29V27H6.69V21.39H17.79C22.56 21.39 25.83 18.39 25.83 13.71C25.83 9.03 22.56 6 17.79 6ZM16.29 16.86H6.69V10.53H16.29C17.91 10.53 20.43 10.53 20.43 13.71C20.43 16.86 17.91 16.86 16.29 16.86ZM38.5221 23.13C35.1021 23.13 32.4021 22.2 31.8321 19.38H50.9121C50.9121 11.34 45.5421 9.03 38.8221 9.03C31.6521 9.03 26.5821 11.67 26.5821 18.18C26.5821 24.66 31.8021 27.3 38.5221 27.3C45.0621 27.3 49.4421 25.17 50.6121 20.67H45.5121C44.2221 22.47 42.0621 23.13 38.5221 23.13ZM38.7921 12.93C42.0321 12.93 44.5521 13.62 45.4221 16.11H32.0121C32.8221 13.62 35.2821 12.93 38.7921 12.93ZM68.8894 13.62V9.33H60.5194V4.2L55.3594 5.67V9.33H50.7094V13.62H55.3594V21.69C55.3594 25.59 58.2994 27.3 62.8594 27.3C65.2294 27.3 67.1794 27.15 68.8894 26.85V22.71C66.8194 23.01 65.9194 23.01 64.2994 23.01C61.1794 23.01 60.5194 22.14 60.5194 18.72V13.62H68.8894Z" fill="white"/>
</svg>
